<?xml version="1.0" encoding="utf-8"?>
<svg height="2500" viewBox="-3.02291033 -.22032094 420.92291033 433.54032094" width="2443" xmlns="http://www.w3.org/2000/svg">
  <defs>
    <linearGradient gradientUnits="userSpaceOnUse" x1="273.13" y1="-64.97" x2="273.13" y2="374.391" id="gradient-0" spreadMethod="pad" gradientTransform="matrix(0.681905, 0.731441, -0.459901, 0.428755, 177.240975, 11.656469)">
      <stop offset="0" style="stop-color: rgb(255, 119, 0);"/>
      <stop offset="1" style="stop-color: rgb(255, 255, 255);"/>
    </linearGradient>
  </defs>
  <path style="fill: url('#gradient-0'); paint-order: fill; fill-rule: nonzero;" d="M 319.861 -56.77 C 409.389 -22.569 324.296 234.831 70.179 266.572 C -40.103 324.491 203.335 545.924 321.313 326.574 C 435.16 114.905 602.183 21.522 602.183 21.522"/>
  <path d="M 171.799 242.083 C 170.953 243.285 170.241 244.274 169.554 245.274 C 158.611 261.381 147.671 277.486 136.735 293.588 C 126.561 308.567 116.377 323.537 106.182 338.498 C 105.84 338.973 105.312 339.281 104.73 339.344 C 90.336 339.22 75.946 339.064 61.559 338.876 C 61.4 338.876 61.235 338.828 60.921 338.78 C 61.037 338.479 61.172 338.186 61.325 337.902 C 71.364 322.339 81.403 306.778 91.442 291.221 C 100.347 277.434 109.256 263.65 118.171 249.87 C 128.051 234.558 137.925 219.235 147.794 203.902 C 149.251 201.641 150.767 199.423 152.15 197.12 C 152.505 196.503 152.611 195.775 152.448 195.083 C 149.788 186.604 147.076 178.146 144.368 169.689 C 143.209 166.067 141.996 162.465 140.911 158.822 C 140.56 157.652 139.98 157.295 138.783 157.301 C 129.74 157.338 120.751 157.327 111.735 157.327 C 110.022 157.327 110.017 157.327 110.017 155.636 C 110.017 144.551 110.017 133.465 109.985 122.38 C 109.985 121.146 110.389 120.87 111.549 120.87 C 129.701 120.901 147.858 120.901 166.017 120.87 C 166.89 120.758 167.709 121.311 167.932 122.162 C 177.507 146.244 187.081 170.317 196.656 194.381 C 207.826 222.444 218.996 250.512 230.166 278.583 C 233.635 287.296 237.129 296.003 240.56 304.737 C 240.97 305.801 241.395 306.003 242.47 305.674 C 251.986 302.732 261.523 299.87 271.034 296.924 C 272.23 296.551 272.667 296.801 273.039 297.987 C 276.284 308.184 279.592 318.36 282.879 328.546 C 282.991 328.897 283.076 329.253 283.209 329.743 C 282.528 329.993 281.89 330.275 281.236 330.456 C 259.605 337.31 237.986 344.168 216.379 351.03 C 215.347 351.355 215.039 351.004 214.693 350.137 C 208.094 333.413 201.478 316.697 194.847 299.987 C 188.361 283.626 181.872 267.264 175.379 250.902 C 174.406 248.445 173.448 245.977 172.475 243.519 C 172.32 243.099 172.108 242.732 171.799 242.083 Z" style="stroke: rgb(250, 126, 20);" fill="#fa7e14"/>
</svg>